@startuml

abstract AbstractProductA {
  + use()
}

class ProductA1 {
  + use()
}

class ProductA2 {
  + use()
}

AbstractProductA <|.. ProductA1
AbstractProductA <|.. ProductA2

abstract AbstractProductB {
  + eat()
}

class ProductB1 {
  + eat()
}

class ProductB2 {
  + eat()
}

AbstractProductB <|.. ProductB1
AbstractProductB <|.. ProductB2


abstract AbstractFactory {
  + AbstractProductA createProductA()
  + AbstractProductB createProductB()
}

class ConcreteFactory1 {
  + ProductA1 createProductA()
  + ProductB1 createProductB()
}

class ConcreteFactory2 {
  + ProductA2 createProductA()
  + ProductB2 createProductB()
}

AbstractFactory <|.. ConcreteFactory1
AbstractFactory <|.. ConcreteFactory2

ProductA1 <.. ConcreteFactory1
ProductB1 <.. ConcreteFactory1

ProductA2 <.. ConcreteFactory2
ProductB2 <.. ConcreteFactory2

@enduml
